<svg xmlns="http://www.w3.org/2000/svg" xmlns:xlink="http://www.w3.org/1999/xlink" preserveAspectRatio="xMidYMid" width="173" height="40" viewBox="0 0 173 40">
  <defs>
    <style>
      .cls-1 {
        fill: #000;
        fill-rule: evenodd;
      }
    </style>
  </defs>
  <path d="M161.817,22.566 C155.665,22.550 150.629,17.502 150.620,11.345 C150.613,5.124 155.645,0.100 161.881,0.104 C168.102,0.108 173.000,5.112 172.994,11.457 C172.988,17.559 167.935,22.583 161.817,22.566 ZM161.839,2.012 C156.713,2.015 152.503,6.205 152.506,11.313 C152.510,16.300 156.489,20.615 161.864,20.647 C166.951,20.678 171.111,16.457 171.131,11.339 C171.152,6.215 166.960,2.008 161.839,2.012 ZM149.091,32.611 C148.910,32.946 148.810,33.355 148.786,33.736 C148.739,34.471 148.772,35.211 148.772,36.014 C148.532,36.025 148.310,36.035 148.005,36.049 C148.005,35.231 148.035,34.450 147.992,33.673 C147.972,33.307 147.877,32.914 147.704,32.593 C147.049,31.372 146.348,30.175 145.639,28.922 C145.883,28.806 146.086,28.710 146.330,28.594 C147.016,29.797 147.685,30.969 148.407,32.236 C149.129,30.978 149.795,29.818 150.491,28.606 C150.720,28.707 150.938,28.802 151.196,28.916 C150.474,30.174 149.758,31.380 149.091,32.611 ZM130.931,5.498 L130.931,22.264 L129.097,22.264 L129.097,-0.005 C134.002,5.847 138.837,11.614 143.671,17.382 C143.707,17.374 143.743,17.366 143.779,17.357 L143.779,0.260 L145.637,0.260 L145.637,22.465 C140.748,16.749 135.914,11.097 131.079,5.445 C131.029,5.463 130.980,5.481 130.931,5.498 ZM129.589,29.376 C129.589,31.155 129.603,32.933 129.579,34.711 C129.573,35.159 129.712,35.288 130.151,35.278 C131.304,35.250 132.458,35.268 133.646,35.268 L133.646,36.045 C132.925,36.045 132.208,36.045 131.492,36.045 C130.738,36.045 129.984,36.041 129.231,36.047 C128.988,36.049 128.808,36.028 128.810,35.707 C128.824,33.426 128.827,31.144 128.835,28.864 C128.835,28.849 128.849,28.834 128.885,28.765 L129.589,28.765 L129.589,29.376 ZM125.894,33.751 C125.776,33.458 125.621,33.336 125.301,33.351 C124.783,33.376 124.262,33.373 123.744,33.352 C123.462,33.341 123.324,33.451 123.223,33.704 C122.976,34.326 122.705,34.939 122.442,35.555 C122.201,36.121 122.201,36.121 121.496,35.878 C122.500,33.437 123.489,31.032 124.533,28.494 C125.578,31.017 126.571,33.418 127.584,35.864 C127.330,35.942 127.131,36.003 126.898,36.075 C126.554,35.283 126.206,34.524 125.894,33.751 ZM124.516,30.388 C124.205,31.237 123.952,31.930 123.684,32.662 L125.415,32.662 C125.119,31.912 124.846,31.223 124.516,30.388 ZM121.457,0.340 L123.218,0.340 L123.218,22.245 L121.457,22.245 L121.457,0.340 ZM122.687,28.579 C121.341,31.115 120.018,33.608 118.662,36.164 C117.290,33.605 115.953,31.110 114.594,28.572 C114.845,28.480 115.070,28.398 115.324,28.305 C116.432,30.356 117.520,32.373 118.653,34.470 C119.787,32.365 120.866,30.360 121.971,28.311 C122.205,28.398 122.414,28.477 122.687,28.579 ZM96.919,0.352 L115.807,0.352 L115.807,1.259 L115.807,2.183 L96.919,2.183 L96.919,0.352 ZM100.616,32.410 C100.613,34.500 99.014,36.100 96.929,36.099 C94.834,36.097 93.195,34.460 93.201,32.374 C93.207,30.343 94.886,28.659 96.913,28.651 C98.975,28.642 100.619,30.312 100.616,32.410 ZM96.901,29.435 C95.297,29.449 93.965,30.788 93.957,32.393 C93.948,33.998 95.276,35.315 96.907,35.321 C98.526,35.327 99.865,34.018 99.884,32.412 C99.903,30.824 98.497,29.420 96.901,29.435 ZM94.023,22.278 C93.904,22.274 93.761,22.144 93.677,22.036 C91.693,19.477 89.710,16.919 87.752,14.341 C87.593,14.132 87.611,13.780 87.570,13.491 C87.431,12.513 87.604,11.922 88.753,11.504 C90.910,10.719 91.959,8.288 91.442,5.983 C90.945,3.761 89.018,2.222 86.719,2.214 C85.445,2.210 84.171,2.213 82.898,2.214 C82.734,2.215 82.571,2.229 82.348,2.240 L82.348,22.264 L80.523,22.264 L80.523,0.364 C80.633,0.345 80.743,0.309 80.852,0.309 C82.898,0.306 84.944,0.271 86.987,0.316 C90.109,0.386 92.907,2.920 93.352,6.016 C93.799,9.126 92.475,11.724 89.691,13.199 C89.619,13.238 89.549,13.283 89.428,13.355 C91.698,16.314 93.956,19.254 96.285,22.290 C95.449,22.290 94.736,22.301 94.023,22.278 ZM83.055,36.045 C82.363,36.045 81.697,36.045 81.030,36.045 C80.226,36.045 79.421,36.059 78.618,36.031 C78.480,36.026 78.231,35.846 78.230,35.745 C78.208,33.433 78.213,31.121 78.213,28.775 L78.961,28.775 C78.969,28.953 78.986,29.145 78.986,29.337 C78.988,31.082 78.987,32.827 78.988,34.572 C78.988,35.266 78.989,35.268 79.662,35.268 C80.781,35.269 81.899,35.268 83.055,35.268 L83.055,36.045 ZM76.115,28.763 L76.816,28.763 L76.816,35.999 L76.115,35.999 L76.115,28.763 ZM62.537,0.346 L75.203,0.346 L75.203,2.191 L64.414,2.191 L64.414,11.986 L71.658,11.986 L71.658,13.898 L64.398,13.898 L64.398,20.366 L75.207,20.366 L75.207,22.263 L62.537,22.263 L62.537,0.346 ZM60.520,39.461 C60.520,39.710 60.650,40.102 60.098,39.960 L60.098,24.667 L60.219,24.558 C60.321,24.673 60.436,24.779 60.517,24.907 C60.555,24.967 60.524,25.071 60.524,25.155 C60.524,29.923 60.525,34.692 60.520,39.461 ZM51.845,13.888 L51.845,11.980 C52.162,11.917 52.491,11.873 52.807,11.785 C55.030,11.166 56.482,8.797 56.143,6.356 C55.820,4.025 53.833,2.231 51.544,2.215 C50.172,2.206 48.800,2.213 47.361,2.213 L47.361,22.253 L45.525,22.253 L45.525,0.322 C47.677,0.322 49.788,0.313 51.898,0.329 C52.279,0.332 52.667,0.399 53.036,0.496 C56.083,1.293 58.189,4.185 58.059,7.372 C57.931,10.541 55.839,13.095 52.828,13.749 C52.521,13.815 52.204,13.838 51.845,13.888 ZM46.434,29.486 L42.972,29.486 L42.972,31.348 L45.243,31.348 L45.243,32.128 L42.975,32.128 L42.975,35.265 L46.641,35.265 L46.641,36.012 L42.198,36.012 L42.198,28.773 L46.434,28.773 L46.434,29.486 ZM38.351,36.000 L37.558,36.000 L37.558,29.492 L34.829,29.492 L34.829,28.769 L41.014,28.769 L41.014,29.486 L38.351,29.486 L38.351,36.000 ZM33.095,22.499 C29.186,22.958 25.313,20.715 23.835,17.446 C23.372,16.422 23.093,15.356 23.089,14.237 C23.076,9.770 23.084,5.304 23.085,0.837 C23.085,0.689 23.100,0.540 23.110,0.350 L24.945,0.350 L24.945,0.923 C24.945,5.154 24.994,9.387 24.931,13.617 C24.870,17.744 28.119,20.403 31.415,20.620 C34.786,20.841 37.843,18.833 38.681,15.729 C38.833,15.169 38.911,14.572 38.914,13.992 C38.933,9.676 38.925,5.361 38.925,1.045 L38.925,0.335 L40.806,0.335 L40.806,0.954 C40.806,5.303 40.810,9.652 40.806,14.002 C40.802,18.270 37.336,22.001 33.095,22.499 ZM24.928,28.765 C25.667,28.577 25.717,28.614 25.717,29.286 C25.717,31.334 25.717,33.382 25.717,35.430 C25.717,36.091 25.714,36.093 24.959,35.993 L24.959,32.176 L19.429,32.176 L19.429,36.003 L18.669,36.003 L18.669,28.702 C18.874,28.692 19.096,28.682 19.390,28.668 L19.390,31.464 L24.928,31.464 L24.928,28.765 ZM9.276,20.334 C12.181,20.937 14.731,20.043 17.033,18.281 C17.178,18.170 17.323,18.060 17.520,17.909 C17.923,18.420 18.311,18.913 18.723,19.437 C17.000,20.851 15.122,21.883 12.939,22.248 C7.424,23.168 2.151,19.897 0.500,14.545 C0.285,13.848 0.167,13.122 0.005,12.409 L0.005,10.192 C0.106,9.705 0.198,9.217 0.309,8.732 C1.381,4.051 5.368,0.610 10.140,0.204 C13.142,-0.052 15.706,1.017 18.160,2.728 C17.696,3.100 17.297,3.453 16.858,3.749 C16.750,3.822 16.485,3.763 16.348,3.676 C14.955,2.784 13.458,2.187 11.796,2.097 C7.912,1.886 4.922,3.467 3.040,6.848 C0.000,12.313 3.152,19.061 9.276,20.334 ZM31.261,28.651 C33.292,28.641 35.004,30.371 34.987,32.417 C34.971,34.479 33.333,36.098 31.261,36.099 C29.179,36.099 27.562,34.492 27.557,32.417 C27.552,30.330 29.194,28.662 31.261,28.651 ZM31.239,35.321 C32.861,35.328 34.205,34.018 34.217,32.419 C34.228,30.802 32.854,29.421 31.248,29.433 C29.650,29.445 28.307,30.786 28.292,32.386 C28.277,33.975 29.622,35.315 31.239,35.321 ZM47.695,28.764 L48.405,28.764 L48.405,29.364 C48.405,31.125 48.420,32.887 48.395,34.648 C48.388,35.121 48.507,35.295 49.005,35.279 C50.142,35.244 51.281,35.268 52.477,35.268 L52.477,36.045 C51.853,36.045 51.238,36.045 50.623,36.045 C49.768,36.045 48.914,36.043 48.060,36.046 C47.828,36.047 47.626,36.050 47.628,35.719 C47.636,33.455 47.636,31.190 47.640,28.925 C47.640,28.878 47.671,28.832 47.695,28.764 ZM69.690,35.211 C70.648,35.306 71.613,35.380 72.576,35.380 C72.917,35.381 73.292,35.197 73.594,35.006 C74.523,34.419 74.504,33.322 73.510,32.854 C72.957,32.593 72.289,32.573 71.672,32.450 C71.150,32.347 70.604,32.316 70.110,32.138 C69.428,31.891 68.969,31.399 68.903,30.617 C68.835,29.802 69.251,29.275 69.912,28.913 C71.120,28.254 72.409,28.235 73.721,28.490 C74.079,28.559 74.429,28.662 74.777,28.748 C74.694,29.259 74.480,29.380 74.000,29.241 C72.975,28.944 71.926,28.866 70.884,29.202 C70.072,29.465 69.612,29.945 69.657,30.478 C69.709,31.097 70.346,31.650 71.147,31.753 C71.810,31.837 72.483,31.862 73.140,31.981 C74.287,32.190 75.059,33.034 75.052,33.988 C75.046,34.770 74.607,35.267 73.968,35.613 C72.887,36.199 71.720,36.202 70.546,36.036 C69.974,35.955 69.410,35.811 68.846,35.697 C68.956,35.118 69.288,35.171 69.690,35.211 ZM84.963,36.009 L84.255,36.009 L84.255,28.762 L84.963,28.762 L84.963,36.009 ZM92.494,29.582 C92.290,29.739 92.118,29.871 91.922,30.021 C91.098,29.516 90.221,29.242 89.254,29.535 C88.574,29.740 88.026,30.139 87.622,30.728 C86.818,31.902 86.951,33.401 87.950,34.417 C89.074,35.561 90.503,35.596 92.145,34.514 C92.332,34.665 92.520,34.816 92.708,34.967 C91.257,36.407 88.959,36.449 87.547,35.126 C86.039,33.713 85.916,31.483 87.260,29.914 C88.568,28.386 90.784,28.228 92.494,29.582 ZM105.482,3.904 L107.294,3.904 L107.294,22.267 L105.482,22.267 L105.482,3.904 ZM106.862,34.202 L106.862,28.782 L107.527,28.782 L107.527,36.247 C105.903,34.316 104.357,32.479 102.812,30.642 C102.776,30.657 102.740,30.671 102.704,30.686 L102.704,36.013 L102.048,36.013 L102.048,28.618 C103.662,30.542 105.209,32.388 106.756,34.233 L106.862,34.202 ZM135.387,35.261 L139.412,35.261 L139.412,36.001 L134.650,36.001 L134.650,28.775 L135.387,28.775 L135.387,35.261 ZM144.123,29.496 C143.171,29.496 142.220,29.496 141.238,29.496 L141.238,31.348 L143.513,31.348 L143.513,32.129 L141.210,32.129 C141.210,33.131 141.200,34.081 141.228,35.031 C141.231,35.113 141.485,35.254 141.625,35.257 C142.530,35.278 143.435,35.268 144.341,35.268 C144.522,35.268 144.703,35.268 144.916,35.268 L144.916,36.014 L140.463,36.014 L140.463,28.757 L144.633,28.757 C144.838,29.418 144.784,29.495 144.123,29.496 Z" class="cls-1"/>
</svg>
